<?xml version="1.0" encoding="UTF-8"?>
<svg id="Artwork" xmlns="http://www.w3.org/2000/svg" viewBox="0 0 1052.09 406.42">
  <defs>
    <style>
      .cls-1 {
        fill: #00f5c5;
      }

      .cls-2 {
        fill: #13499d;
      }
    </style>
  </defs>
  <g>
    <g>
      <path class="cls-2" d="M366.76,243.43c-7.61,0-14.62-1.25-21.01-3.74-6.39-2.49-11.96-6.04-16.71-10.64-4.75-4.6-8.44-9.96-11.07-16.07-2.63-6.11-3.95-12.88-3.95-20.3s1.32-14.19,3.95-20.3c2.63-6.11,6.34-11.47,11.14-16.07,4.79-4.6,10.38-8.15,16.78-10.64,6.39-2.49,13.39-3.74,21.01-3.74,8.08,0,15.46,1.39,22.13,4.16,6.67,2.77,12.31,6.89,16.92,12.34l-11.84,11.14c-3.67-3.85-7.71-6.74-12.12-8.67-4.42-1.92-9.16-2.89-14.24-2.89s-9.89.85-14.17,2.54c-4.28,1.69-7.99,4.09-11.14,7.19-3.15,3.1-5.62,6.77-7.4,11-1.79,4.23-2.68,8.88-2.68,13.96s.89,9.73,2.68,13.96c1.78,4.23,4.25,7.9,7.4,11,3.15,3.1,6.86,5.5,11.14,7.19,4.28,1.69,9,2.54,14.17,2.54s9.82-.96,14.24-2.89c4.42-1.92,8.46-4.86,12.12-8.81l11.84,11.14c-4.61,5.45-10.25,9.59-16.92,12.41-6.67,2.82-14.1,4.23-22.28,4.23Z"/>
      <path class="cls-2" d="M477.43,173.64c-5.92-5.26-14.38-7.89-25.38-7.89-6.02,0-11.8.8-17.34,2.4-5.55,1.6-10.39,3.95-14.52,7.05l6.91,12.83c2.91-2.35,6.39-4.18,10.43-5.5,4.04-1.31,8.13-1.97,12.27-1.97,6.39,0,11.16,1.43,14.31,4.3,3.15,2.87,4.72,6.89,4.72,12.05v1.13h-19.6c-7.61,0-13.72.99-18.33,2.96-4.61,1.97-7.92,4.65-9.94,8.04-2.02,3.38-3.03,7.19-3.03,11.42s1.15,8.2,3.45,11.63c2.3,3.43,5.57,6.11,9.8,8.04,4.23,1.93,9.16,2.89,14.8,2.89,6.77,0,12.31-1.22,16.64-3.67,2.98-1.68,5.32-3.85,7.05-6.47v9.15h16.64v-44.13c0-10.9-2.96-18.98-8.88-24.25ZM461.29,227.22c-3.43,1.97-7.31,2.96-11.63,2.96s-8.04-.94-10.57-2.82c-2.54-1.88-3.81-4.37-3.81-7.47,0-2.91,1.06-5.33,3.17-7.26,2.12-1.93,6.13-2.89,12.05-2.89h18.33v8.74c-1.6,3.85-4.11,6.77-7.54,8.74Z"/>
      <path class="cls-2" d="M510.42,242.02v-104.61h17.48v104.61h-17.48Z"/>
      <path class="cls-2" d="M552.57,242.02v-104.61h17.48v104.61h-17.48Z"/>
      <path class="cls-1" d="M670.01,242.02h19.31l-44.55-98.69h-18.05l-44.41,98.69h18.75l9.81-22.84h49.36l9.77,22.84ZM617.05,204.8l18.55-43.19,18.48,43.19h-37.03Z"/>
      <path class="cls-2" d="M757.56,137.41v38.32c-2.1-2.37-4.49-4.32-7.19-5.82-4.98-2.77-10.62-4.16-16.92-4.16-7.24,0-13.75,1.6-19.53,4.79-5.78,3.2-10.32,7.71-13.6,13.53-3.29,5.83-4.93,12.6-4.93,20.3s1.64,14.59,4.93,20.37c3.29,5.78,7.82,10.27,13.6,13.46,5.78,3.2,12.29,4.79,19.53,4.79,6.58,0,12.34-1.39,17.27-4.16,3-1.69,5.61-3.93,7.82-6.71v9.88h16.78v-104.61h-17.76ZM754.95,216.85c-2.02,3.62-4.7,6.39-8.04,8.32-3.34,1.93-7.12,2.89-11.35,2.89s-8.01-.96-11.35-2.89c-3.34-1.92-6.02-4.7-8.04-8.32-2.02-3.62-3.03-7.78-3.03-12.48s1.01-8.95,3.03-12.48c2.02-3.52,4.7-6.25,8.04-8.18,3.33-1.92,7.12-2.89,11.35-2.89s8.01.96,11.35,2.89c3.33,1.93,6.01,4.65,8.04,8.18,2.02,3.52,3.03,7.68,3.03,12.48s-1.01,8.86-3.03,12.48Z"/>
      <path class="cls-2" d="M833.69,243.01c-7.61,0-14.45-1.67-20.51-5-6.06-3.34-10.83-7.92-14.31-13.75-3.48-5.83-5.22-12.45-5.22-19.88s1.74-14.29,5.22-20.02c3.48-5.73,8.22-10.27,14.24-13.6,6.01-3.33,12.88-5,20.58-5s14.73,1.67,20.79,5c6.06,3.34,10.81,7.87,14.24,13.6,3.43,5.73,5.15,12.41,5.15,20.02s-1.72,14.17-5.15,19.95c-3.43,5.78-8.2,10.34-14.31,13.68-6.11,3.34-13.02,5-20.72,5ZM833.69,228.06c4.32,0,8.18-.96,11.56-2.89,3.38-1.92,6.04-4.7,7.97-8.32,1.92-3.62,2.89-7.78,2.89-12.48s-.96-8.95-2.89-12.48c-1.93-3.52-4.58-6.25-7.97-8.18-3.38-1.92-7.19-2.89-11.42-2.89s-8.04.96-11.42,2.89c-3.38,1.93-6.06,4.65-8.04,8.18s-2.96,7.68-2.96,12.48.99,8.86,2.96,12.48c1.97,3.62,4.65,6.39,8.04,8.32,3.38,1.93,7.14,2.89,11.28,2.89Z"/>
      <path class="cls-2" d="M926.73,243.01c-7.9,0-14.92-1.67-21.08-5-6.16-3.34-10.97-7.9-14.45-13.68-3.48-5.78-5.22-12.43-5.22-19.95s1.74-14.29,5.22-20.02c3.48-5.73,8.29-10.27,14.45-13.6,6.16-3.33,13.18-5,21.08-5,7.24,0,13.67,1.5,19.31,4.51,5.64,3.01,9.87,7.38,12.69,13.11l-13.39,7.89c-2.26-3.48-5-6.08-8.25-7.82-3.24-1.74-6.75-2.61-10.5-2.61-4.32,0-8.22.96-11.7,2.89-3.48,1.93-6.2,4.65-8.18,8.18s-2.96,7.68-2.96,12.48.99,8.98,2.96,12.55c1.97,3.57,4.7,6.32,8.18,8.25,3.48,1.93,7.38,2.89,11.7,2.89,3.76,0,7.26-.87,10.5-2.61,3.24-1.74,5.99-4.39,8.25-7.97l13.39,7.9c-2.82,5.64-7.05,9.99-12.69,13.04-5.64,3.05-12.08,4.58-19.31,4.58Z"/>
    </g>
    <g>
      <polygon class="cls-2" points="346.03 278.69 326.84 278.69 326.84 265.02 323.6 265.02 323.6 295.68 326.84 295.68 326.84 281.53 346.03 281.53 346.03 295.68 349.22 295.68 349.22 265.02 346.03 265.02 346.03 278.69"/>
      <path class="cls-2" d="M376.21,284.73c0,1.75-.31,3.26-.94,4.51s-1.53,2.21-2.71,2.87c-1.18.66-2.58.99-4.18.99-2.19,0-3.89-.62-5.1-1.86-1.21-1.24-1.82-3.09-1.82-5.54v-13.01h-3.11v13.36c0,2.19.4,4.01,1.21,5.47.8,1.46,1.93,2.56,3.39,3.29,1.46.73,3.17,1.09,5.12,1.09s3.83-.47,5.37-1.42c1.24-.77,2.2-1.79,2.91-3.04v4.24h2.98v-23h-3.11v12.04Z"/>
      <path class="cls-2" d="M421.6,273.54c-1.39-.71-3.02-1.07-4.88-1.07-2.39,0-4.45.58-6.15,1.73-1.26.85-2.24,1.91-2.94,3.15-.56-1.33-1.37-2.41-2.47-3.19-1.58-1.12-3.49-1.69-5.74-1.69-2.13,0-3.98.48-5.54,1.42-1.25.76-2.21,1.76-2.91,2.98v-4.19h-2.98v23h3.11v-12.09c0-1.75.31-3.25.94-4.49s1.53-2.19,2.69-2.85c1.17-.66,2.53-.99,4.07-.99,2.1,0,3.74.62,4.91,1.86,1.17,1.24,1.75,3.07,1.75,5.5v13.05h3.11v-12.09c0-1.75.31-3.25.94-4.49s1.52-2.19,2.67-2.85,2.52-.99,4.1-.99c2.1,0,3.73.62,4.88,1.86,1.15,1.24,1.73,3.07,1.73,5.5v13.05h3.11v-13.36c0-2.22-.39-4.06-1.16-5.52s-1.85-2.55-3.24-3.26Z"/>
      <path class="cls-2" d="M442.52,272.47c-1.81,0-3.53.27-5.17.81-1.64.54-3.04,1.31-4.21,2.3l1.4,2.32c.93-.82,2.07-1.47,3.42-1.97,1.34-.5,2.76-.75,4.25-.75,2.16,0,3.79.53,4.88,1.58,1.09,1.05,1.64,2.56,1.64,4.51v1.4h-7.31c-2.19,0-3.94.3-5.23.9-1.3.6-2.23,1.39-2.8,2.37-.57.98-.85,2.07-.85,3.26,0,1.31.33,2.47,1.01,3.48.67,1.01,1.64,1.8,2.91,2.37s2.77.85,4.49.85c2.19,0,4.01-.45,5.45-1.36,1.06-.66,1.88-1.49,2.47-2.48v3.62h2.98v-14.28c0-3.01-.81-5.25-2.43-6.72-1.62-1.47-3.92-2.21-6.9-2.21ZM445.96,292.24c-1.27.8-2.78,1.21-4.53,1.21-1.84,0-3.27-.39-4.29-1.18-1.02-.79-1.53-1.84-1.53-3.15,0-1.17.43-2.15,1.29-2.93.86-.79,2.4-1.18,4.62-1.18h7.23v3.77c-.58,1.52-1.51,2.68-2.78,3.48Z"/>
      <path class="cls-2" d="M476.97,273.54c-1.42-.71-3.06-1.07-4.93-1.07-2.22,0-4.13.48-5.74,1.42-1.3.77-2.3,1.78-3.02,3.02v-4.22h-2.98v23h3.11v-12.09c0-1.75.33-3.25.99-4.49s1.59-2.19,2.8-2.85c1.21-.66,2.63-.99,4.27-.99,2.19,0,3.89.62,5.1,1.86,1.21,1.24,1.82,3.07,1.82,5.5v13.05h3.11v-13.36c0-2.22-.4-4.06-1.21-5.52s-1.91-2.55-3.33-3.26Z"/>
      <path class="cls-2" d="M506.47,276.3c1.31-.74,2.79-1.12,4.42-1.12,1.37,0,2.64.28,3.81.83,1.17.56,2.15,1.42,2.93,2.58l2.32-1.58c-.91-1.52-2.15-2.66-3.72-3.42-1.58-.76-3.34-1.14-5.3-1.14-2.28,0-4.31.5-6.11,1.49-1.8.99-3.21,2.37-4.23,4.12-1.02,1.75-1.53,3.78-1.53,6.09s.51,4.3,1.53,6.07c1.02,1.77,2.43,3.15,4.23,4.16,1.8,1.01,3.83,1.51,6.11,1.51,1.96,0,3.72-.39,5.3-1.16s2.82-1.91,3.72-3.39l-2.32-1.58c-.79,1.14-1.77,1.99-2.93,2.54-1.17.56-2.44.83-3.81.83-1.64,0-3.11-.37-4.42-1.12-1.31-.75-2.35-1.79-3.11-3.13-.76-1.34-1.14-2.92-1.14-4.73s.38-3.39,1.14-4.73c.76-1.34,1.8-2.39,3.11-3.13Z"/>
      <path class="cls-2" d="M534.1,272.47c-1.81,0-3.53.27-5.17.81-1.64.54-3.04,1.31-4.21,2.3l1.4,2.32c.93-.82,2.07-1.47,3.42-1.97,1.34-.5,2.76-.75,4.25-.75,2.16,0,3.79.53,4.88,1.58,1.09,1.05,1.64,2.56,1.64,4.51v1.4h-7.31c-2.19,0-3.94.3-5.23.9-1.3.6-2.23,1.39-2.8,2.37-.57.98-.85,2.07-.85,3.26,0,1.31.33,2.47,1.01,3.48.67,1.01,1.64,1.8,2.91,2.37s2.77.85,4.49.85c2.19,0,4.01-.45,5.45-1.36,1.06-.66,1.88-1.49,2.47-2.48v3.62h2.98v-14.28c0-3.01-.81-5.25-2.43-6.72-1.62-1.47-3.92-2.21-6.9-2.21ZM537.54,292.24c-1.27.8-2.78,1.21-4.53,1.21-1.84,0-3.27-.39-4.29-1.18-1.02-.79-1.53-1.84-1.53-3.15,0-1.17.43-2.15,1.29-2.93.86-.79,2.4-1.18,4.62-1.18h7.23v3.77c-.58,1.52-1.51,2.68-2.78,3.48Z"/>
      <path class="cls-2" d="M554.87,277.18v-4.5h-2.98v23h3.11v-11.74c0-2.72.69-4.81,2.06-6.29,1.37-1.47,3.27-2.21,5.69-2.21.12,0,.23,0,.35.02.12.01.23.02.35.02v-3.02c-2.25,0-4.13.46-5.65,1.38-1.31.79-2.28,1.92-2.93,3.34Z"/>
      <path class="cls-2" d="M584.15,273.93c-1.68-.98-3.6-1.47-5.76-1.47s-4.05.5-5.76,1.51c-1.71,1.01-3.05,2.39-4.03,4.14-.98,1.75-1.47,3.77-1.47,6.04s.51,4.3,1.53,6.07c1.02,1.77,2.44,3.15,4.25,4.16,1.81,1.01,3.91,1.51,6.31,1.51,1.84,0,3.53-.32,5.06-.96s2.81-1.58,3.83-2.8l-1.75-2.01c-.88,1.02-1.92,1.78-3.13,2.28-1.21.5-2.52.75-3.92.75-1.78,0-3.37-.37-4.75-1.12-1.39-.75-2.47-1.78-3.24-3.11-.65-1.11-1.01-2.38-1.11-3.79h19.31c0-.18,0-.34.02-.5.01-.16.02-.31.02-.46,0-2.31-.48-4.34-1.45-6.11-.96-1.77-2.29-3.14-3.96-4.12ZM571.2,279.3c.7-1.31,1.68-2.34,2.94-3.07,1.25-.73,2.67-1.1,4.25-1.1s3.02.37,4.25,1.1,2.2,1.75,2.91,3.04c.58,1.05.91,2.23,1.02,3.53h-16.36c.11-1.29.44-2.46,1-3.5Z"/>
      <path class="cls-2" d="M596.26,291.13c-.64,0-1.19.22-1.64.66-.45.44-.68,1.01-.68,1.71s.23,1.27.68,1.71c.27.26.57.43.92.54l-1.51,6.34h2.1l1.84-6.04c.15-.41.26-.76.35-1.05.09-.29.15-.55.18-.79.03-.23.04-.47.04-.7,0-.64-.21-1.2-.63-1.66-.42-.47-.97-.7-1.64-.7Z"/>
      <path class="cls-2" d="M638.41,266.97c-2.47-1.3-5.34-1.95-8.61-1.95h-12.48v30.66h12.48c3.27,0,6.14-.65,8.61-1.95,2.47-1.3,4.39-3.1,5.76-5.41,1.37-2.31,2.06-4.96,2.06-7.97s-.69-5.67-2.06-7.97c-1.37-2.31-3.29-4.11-5.76-5.41ZM641.37,286.85c-1.11,1.88-2.67,3.36-4.67,4.42-2,1.07-4.36,1.6-7.07,1.6h-9.07v-25.05h9.07c2.71,0,5.07.53,7.07,1.6,2,1.07,3.55,2.53,4.67,4.4,1.11,1.87,1.66,4.04,1.66,6.53s-.55,4.62-1.66,6.5Z"/>
      <path class="cls-2" d="M654.42,263.18c-.64,0-1.18.21-1.62.63-.44.42-.66.94-.66,1.55s.22,1.14.66,1.58.98.66,1.62.66,1.22-.22,1.64-.66c.42-.44.63-.98.63-1.62s-.22-1.12-.66-1.53c-.44-.41-.98-.61-1.62-.61Z"/>
      <rect class="cls-2" x="652.85" y="272.69" width="3.11" height="23"/>
      <path class="cls-2" d="M682.98,277.05c-.93-1.43-2.12-2.54-3.59-3.31-1.63-.85-3.47-1.27-5.52-1.27-2.19,0-4.16.47-5.91,1.4s-3.13,2.24-4.14,3.92c-1.01,1.68-1.51,3.61-1.51,5.8s.5,4.13,1.51,5.83c1.01,1.69,2.39,3.02,4.14,3.96,1.75.95,3.72,1.42,5.91,1.42,2.04,0,3.88-.44,5.52-1.31,1.41-.75,2.55-1.82,3.46-3.16v2.94c0,2.86-.69,4.97-2.06,6.33-1.37,1.36-3.52,2.04-6.44,2.04-1.78,0-3.47-.29-5.06-.85-1.59-.57-2.93-1.34-4.01-2.3l-1.58,2.37c1.2,1.14,2.76,2.01,4.69,2.63,1.93.61,3.94.92,6.04.92,3.8,0,6.67-.93,8.61-2.78,1.94-1.85,2.91-4.77,2.91-8.74v-20.19h-2.98v4.36ZM678.69,290.97c-1.31.72-2.82,1.07-4.51,1.07s-3.16-.36-4.49-1.07c-1.33-.71-2.37-1.71-3.11-2.98-.74-1.27-1.12-2.74-1.12-4.4s.37-3.12,1.12-4.38c.75-1.26,1.78-2.24,3.11-2.96,1.33-.71,2.83-1.07,4.49-1.07s3.2.36,4.51,1.07c1.31.72,2.35,1.7,3.11,2.96s1.14,2.71,1.14,4.38-.38,3.13-1.14,4.4c-.76,1.27-1.8,2.26-3.11,2.98Z"/>
      <rect class="cls-2" x="694.63" y="272.69" width="3.11" height="23"/>
      <path class="cls-2" d="M696.21,263.18c-.64,0-1.18.21-1.62.63-.44.42-.66.94-.66,1.55s.22,1.14.66,1.58.98.66,1.62.66,1.22-.22,1.64-.66c.42-.44.63-.98.63-1.62s-.22-1.12-.66-1.53c-.44-.41-.98-.61-1.62-.61Z"/>
      <path class="cls-2" d="M714.04,293.23c-1.29,0-2.27-.36-2.96-1.09-.69-.73-1.03-1.77-1.03-3.11v-13.75h7.01v-2.58h-7.01v-5.08h-3.11v5.08h-4.12v2.58h4.12v13.93c0,2.13.58,3.78,1.75,4.95,1.17,1.17,2.83,1.75,4.99,1.75.9,0,1.79-.13,2.65-.39.86-.26,1.6-.67,2.21-1.23l-1.09-2.23c-.91.79-2.04,1.18-3.42,1.18Z"/>
      <path class="cls-2" d="M732.26,272.47c-1.81,0-3.53.27-5.17.81-1.64.54-3.04,1.31-4.21,2.3l1.4,2.32c.93-.82,2.07-1.47,3.42-1.97,1.34-.5,2.76-.75,4.25-.75,2.16,0,3.79.53,4.88,1.58,1.09,1.05,1.64,2.56,1.64,4.51v1.4h-7.31c-2.19,0-3.94.3-5.23.9-1.3.6-2.23,1.39-2.8,2.37-.57.98-.85,2.07-.85,3.26,0,1.31.33,2.47,1.01,3.48.67,1.01,1.64,1.8,2.91,2.37s2.77.85,4.49.85c2.19,0,4.01-.45,5.45-1.36,1.06-.66,1.88-1.49,2.47-2.48v3.62h2.98v-14.28c0-3.01-.81-5.25-2.43-6.72-1.62-1.47-3.92-2.21-6.9-2.21ZM735.69,292.24c-1.27.8-2.78,1.21-4.53,1.21-1.84,0-3.27-.39-4.29-1.18-1.02-.79-1.53-1.84-1.53-3.15,0-1.17.43-2.15,1.29-2.93.86-.79,2.4-1.18,4.62-1.18h7.23v3.77c-.58,1.52-1.51,2.68-2.78,3.48Z"/>
      <rect class="cls-2" x="750.04" y="263.18" width="3.11" height="32.5"/>
      <path class="cls-2" d="M780.92,293.23c-1.29,0-2.27-.36-2.96-1.09-.69-.73-1.03-1.77-1.03-3.11v-13.75h7.01v-2.58h-7.01v-5.08h-3.11v5.08h-4.12v2.58h4.12v13.93c0,2.13.58,3.78,1.75,4.95,1.17,1.17,2.83,1.75,4.99,1.75.9,0,1.79-.13,2.65-.39.86-.26,1.6-.67,2.21-1.23l-1.09-2.23c-.91.79-2.04,1.18-3.42,1.18Z"/>
      <path class="cls-2" d="M806.52,273.98c-1.77-1.01-3.79-1.51-6.07-1.51s-4.25.5-6,1.49c-1.75.99-3.14,2.37-4.16,4.12-1.02,1.75-1.53,3.78-1.53,6.09s.51,4.26,1.53,6.04c1.02,1.78,2.41,3.17,4.16,4.18,1.75,1.01,3.75,1.51,6,1.51s4.26-.5,6.04-1.51c1.78-1.01,3.18-2.39,4.18-4.16,1.01-1.77,1.51-3.79,1.51-6.07s-.5-4.33-1.51-6.07c-1.01-1.74-2.4-3.11-4.16-4.12ZM807.92,288.87c-.75,1.36-1.76,2.41-3.04,3.15-1.29.74-2.76,1.12-4.42,1.12s-3.09-.37-4.36-1.12c-1.27-.75-2.29-1.8-3.04-3.15-.76-1.36-1.14-2.93-1.14-4.71s.38-3.39,1.14-4.73c.76-1.34,1.78-2.39,3.07-3.13s2.75-1.12,4.38-1.12,3.09.37,4.38,1.12c1.28.74,2.3,1.79,3.04,3.13.74,1.34,1.12,2.92,1.12,4.73s-.37,3.35-1.12,4.71Z"/>
      <path class="cls-2" d="M836.19,284.73c0,1.75-.31,3.26-.94,4.51s-1.53,2.21-2.71,2.87c-1.18.66-2.58.99-4.18.99-2.19,0-3.89-.62-5.1-1.86-1.21-1.24-1.82-3.09-1.82-5.54v-13.01h-3.11v13.36c0,2.19.4,4.01,1.21,5.47.8,1.46,1.93,2.56,3.39,3.29,1.46.73,3.17,1.09,5.12,1.09s3.83-.47,5.37-1.42c1.24-.77,2.2-1.79,2.91-3.04v4.24h2.98v-23h-3.11v12.04Z"/>
      <path class="cls-2" d="M853.06,276.3c1.31-.74,2.79-1.12,4.42-1.12,1.37,0,2.64.28,3.81.83,1.17.56,2.15,1.42,2.93,2.58l2.32-1.58c-.91-1.52-2.15-2.66-3.72-3.42-1.58-.76-3.34-1.14-5.3-1.14-2.28,0-4.31.5-6.11,1.49-1.8.99-3.21,2.37-4.23,4.12-1.02,1.75-1.53,3.78-1.53,6.09s.51,4.3,1.53,6.07c1.02,1.77,2.43,3.15,4.23,4.16,1.8,1.01,3.83,1.51,6.11,1.51,1.96,0,3.72-.39,5.3-1.16s2.82-1.91,3.72-3.39l-2.32-1.58c-.79,1.14-1.77,1.99-2.93,2.54-1.17.56-2.44.83-3.81.83-1.64,0-3.11-.37-4.42-1.12-1.31-.75-2.35-1.79-3.11-3.13-.76-1.34-1.14-2.92-1.14-4.73s.38-3.39,1.14-4.73c.76-1.34,1.8-2.39,3.11-3.13Z"/>
      <path class="cls-2" d="M889.3,273.54c-1.42-.71-3.06-1.07-4.93-1.07-2.22,0-4.13.48-5.74,1.42-1.22.72-2.18,1.64-2.89,2.77v-13.48h-3.11v32.5h3.11v-12.09c0-1.75.33-3.25.99-4.49s1.59-2.19,2.8-2.85c1.21-.66,2.63-.99,4.27-.99,2.19,0,3.89.62,5.1,1.86,1.21,1.24,1.82,3.07,1.82,5.5v13.05h3.11v-13.36c0-2.22-.4-4.06-1.21-5.52s-1.91-2.55-3.33-3.26Z"/>
      <path class="cls-2" d="M904.19,291.78c-.45-.44-1-.66-1.64-.66s-1.19.22-1.64.66c-.45.44-.68,1.01-.68,1.71s.23,1.24.68,1.71,1,.7,1.64.7,1.19-.23,1.64-.7c.45-.47.68-1.04.68-1.71s-.23-1.27-.68-1.71Z"/>
    </g>
  </g>
  <g>
    <path class="cls-1" d="M266.94,140.6l-86.79-27.38-86.8,27.39v-17.96c0-1.67,1.08-3.15,2.68-3.65l84.12-26.54,84.12,26.54c1.59.5,2.68,1.98,2.68,3.65-.01,5.61,0,11.68,0,17.96Z"/>
    <path class="cls-1" d="M206.68,214.87h-16.76v-16.76c0-2.65-2.15-4.81-4.81-4.81h-9.93c-2.65,0-4.81,2.15-4.81,4.81v16.76h-16.76c-2.65,0-4.81,2.15-4.81,4.81v9.93c0,2.65,2.15,4.81,4.81,4.81h16.76v16.76c0,2.65,2.15,4.81,4.81,4.81h9.93c2.65,0,4.81-2.15,4.81-4.81v-16.76h16.76c2.65,0,4.81-2.15,4.81-4.81v-9.93c0-2.65-2.15-4.81-4.81-4.81Z"/>
    <path class="cls-2" d="M114.5,177.63v58.63c0,12.62,6.42,24.38,17.04,31.2l27.42,19.86c7.27,4.67,11.66,12.71,11.66,21.35v6.62c0,1.82-2.02,2.92-3.55,1.94l-52.57-36.02h0c-14.6-9.66-21.15-25.22-21.15-38.73v-74.39c0-3.96,2.57-7.46,6.34-8.65l14.81-4.68,41.08-12.96c2.73-.86,5.51,1.18,5.51,4.04v17.11l-46.59,14.69Z"/>
    <path class="cls-2" d="M245.79,177.63v58.63c0,12.62-6.42,24.38-17.04,31.2l-27.42,19.86c-7.27,4.67-11.66,12.71-11.66,21.35v6.62c0,1.82,2.02,2.92,3.55,1.94l52.57-36.02h0c14.6-9.66,21.15-25.22,21.15-38.73v-74.39c0-3.96-2.57-7.46-6.34-8.65l-14.81-4.68-41.08-12.96c-2.73-.86-5.51,1.18-5.51,4.04v17.11l46.59,14.69Z"/>
  </g>
</svg>