<?xml version="1.0" encoding="utf-8"?>
<!-- Generator: Adobe Illustrator 26.4.1, SVG Export Plug-In . SVG Version: 6.00 Build 0)  -->
<svg version="1.1" id="Layer_1" xmlns="http://www.w3.org/2000/svg" xmlns:xlink="http://www.w3.org/1999/xlink" x="0px" y="0px"
	 viewBox="0 0 50 50" style="enable-background:new 0 0 50 50;" xml:space="preserve">
<style type="text/css">
	.st0{fill:#0071BC;}
</style>
<g id="aNjO18.tif">
	<g>
		<path class="st0" d="M5.2,33.53c0.2-0.6,0.63-0.98,1.18-1.26c0.45-0.22,0.88-0.49,1.31-0.73c0.86-0.48,1.75-0.24,2.25,0.61
			c0.12,0.2,0.24,0.41,0.37,0.65c0.7-0.4,1.38-0.8,2.07-1.19c1.15-0.65,2.28-1.33,3.45-1.94c1.27-0.66,2.58-0.75,3.94-0.23
			c1.94,0.73,3.89,1.43,5.93,1.83c1.13,0.23,1.93,1.37,1.85,2.5c-0.02,0.31-0.12,0.61-0.21,1c0.3-0.14,0.57-0.25,0.82-0.4
			c2.05-1.19,4.09-2.38,6.13-3.57c0.86-0.5,1.76-0.93,2.76-1.05c1-0.12,1.91,0.07,2.55,0.93c0.62,0.84,0.7,1.78,0.25,2.7
			c-0.2,0.41-0.54,0.81-0.92,1.05c-3.79,2.37-7.6,4.7-11.4,7.04c-1.26,0.77-2.59,0.9-4,0.52c-2.43-0.66-4.87-1.29-7.3-1.97
			c-0.46-0.13-0.84-0.14-1.21,0.17c-0.11,0.09-0.25,0.15-0.4,0.24c0.16,0.28,0.32,0.55,0.47,0.83c0.45,0.84,0.22,1.71-0.59,2.19
			c-0.58,0.35-1.16,0.68-1.76,0.99c-0.8,0.42-1.68,0.18-2.13-0.6c-1.75-3.06-3.48-6.14-5.21-9.21c-0.08-0.15-0.14-0.31-0.21-0.47
			C5.2,33.95,5.2,33.74,5.2,33.53z M14,39.3c0.31-0.18,0.58-0.3,0.81-0.47c0.41-0.3,0.81-0.31,1.3-0.17
			c2.53,0.7,5.08,1.35,7.61,2.06c1.24,0.34,2.36,0.22,3.45-0.49c0.91-0.59,1.84-1.14,2.77-1.71c2.77-1.7,5.54-3.41,8.3-5.11
			c0.53-0.32,0.74-0.9,0.58-1.51C38.66,31.32,38.23,31,37.57,31c-0.2,0-0.41-0.01-0.59,0.06c-0.71,0.28-1.44,0.53-2.1,0.9
			c-2.03,1.14-4.03,2.32-6.03,3.5c-1.07,0.63-2.22,0.88-3.43,0.62c-1.66-0.37-3.31-0.8-4.96-1.22c-0.39-0.1-0.57-0.45-0.46-0.79
			c0.11-0.35,0.43-0.53,0.82-0.43c0.68,0.18,1.34,0.39,2.02,0.56c0.75,0.19,1.51,0.4,2.28,0.5c0.63,0.08,1.09-0.34,1.18-0.93
			c0.08-0.55-0.32-1.12-0.9-1.28c-0.18-0.05-0.37-0.07-0.54-0.12c-1.91-0.6-3.83-1.2-5.73-1.82c-0.72-0.24-1.43-0.27-2.13,0.01
			c-0.42,0.16-0.83,0.35-1.22,0.57c-1.52,0.86-3.02,1.74-4.53,2.62c-0.09,0.05-0.16,0.12-0.26,0.19C11.98,35.73,12.98,37.5,14,39.3z
			 M8.59,32.55c-0.12,0.04-0.17,0.06-0.22,0.08c-0.56,0.32-1.13,0.64-1.69,0.96c-0.24,0.14-0.21,0.32-0.09,0.54
			c1.69,2.99,3.39,5.98,5.08,8.97c0.16,0.28,0.34,0.32,0.62,0.16c0.45-0.27,0.92-0.52,1.38-0.78c0.45-0.25,0.47-0.32,0.21-0.77
			c-0.8-1.41-1.6-2.83-2.4-4.24c-0.86-1.52-1.72-3.04-2.58-4.55C8.81,32.76,8.68,32.66,8.59,32.55z"/>
		<path class="st0" d="M16.88,11.27c-0.43-0.46-0.84-0.92-1.27-1.38c-0.2-0.22-0.32-0.45-0.2-0.75c0.12-0.3,0.37-0.39,0.66-0.41
			c0.87-0.04,1.74-0.07,2.61-0.14c0.24-0.02,0.52-0.12,0.7-0.27c4.89-4.25,12.39-4.01,16.98,0.56c0.11,0.11,0.17,0.27,0.24,0.38
			c1.12-1.1,2.12-2.09,3.13-3.08c0.91-0.89,1.98-1.16,3.17-0.69c1.87,0.73,2.41,3.09,1.03,4.6c-0.8,0.88-1.67,1.7-2.5,2.55
			c-0.51,0.52-1.02,1.04-1.54,1.55c-0.17,0.17-0.22,0.32-0.16,0.56c1.71,6.98-2.57,13.85-9.57,15.36
			c-6.84,1.48-13.67-3.1-14.91-10.01c-0.55-3.02-0.04-5.86,1.46-8.53C16.78,11.47,16.83,11.37,16.88,11.27z M36.22,17.94
			c-0.16,0.15-0.26,0.24-0.36,0.34c-1.3,1.3-2.59,2.61-3.89,3.91c-1.14,1.13-2.87,1.24-3.97,0.18c-1.78-1.71-3.52-3.47-5.25-5.25
			c-0.83-0.85-0.93-2.16-0.38-3.22c0.55-1.05,1.69-1.64,2.87-1.51c0.73,0.08,1.32,0.42,1.83,0.94c0.92,0.93,1.85,1.85,2.72,2.72
			c1.4-1.37,2.77-2.72,4.15-4.07c-0.02-0.03-0.04-0.07-0.07-0.1c-2.82-3.2-8.3-3.62-11.56-0.89c-0.11,0.09-0.19,0.25-0.21,0.39
			c-0.16,1.1-0.31,2.2-0.45,3.3c-0.04,0.33-0.14,0.59-0.48,0.7c-0.33,0.1-0.55-0.07-0.76-0.3c-0.22-0.25-0.45-0.49-0.7-0.75
			c-1.44,3.15-0.75,6.97,1.68,9.48c2.51,2.59,6.29,3.36,9.6,1.95C34.32,24.34,36.2,21.1,36.22,17.94z M29.83,21.9
			c0.02-0.03,0.03-0.07,0.05-0.1c0.53,0.01,0.92-0.25,1.28-0.61c3.89-3.93,7.78-7.85,11.67-11.77c0.1-0.1,0.21-0.21,0.29-0.32
			c0.38-0.55,0.44-1.13,0.11-1.72c-0.32-0.57-0.83-0.84-1.48-0.81c-0.48,0.02-0.84,0.26-1.17,0.59c-3.36,3.39-6.72,6.78-10.08,10.16
			c-0.49,0.5-0.77,0.5-1.27,0c-1.07-1.06-2.12-2.14-3.2-3.19c-0.65-0.64-1.63-0.62-2.25,0c-0.63,0.63-0.65,1.59-0.01,2.24
			c1.65,1.67,3.31,3.34,5,4.98C29.05,21.61,29.48,21.72,29.83,21.9z M38.6,15.51c-0.39,0.39-0.72,0.71-1.02,1.06
			c-0.07,0.08-0.09,0.23-0.1,0.36c-0.04,0.87,0.01,1.75-0.13,2.6c-1.03,6.28-7.89,10-13.69,7.38c-3.71-1.67-5.71-4.63-5.97-8.7
			c-0.12-1.85,0.34-3.59,1.24-5.21c0.29-0.51,0.75-0.57,1.16-0.14c0.13,0.13,0.25,0.26,0.44,0.47c0.16-1.22,0.31-2.35,0.47-3.55
			c-1.2,0.06-2.35,0.12-3.58,0.18c0.2,0.22,0.33,0.35,0.45,0.49c0.6,0.65,0.61,0.72,0.15,1.47c-1.37,2.25-1.92,4.68-1.59,7.29
			c0.86,6.87,7.6,11.33,14.25,9.46c4.53-1.27,7.85-5.36,8.15-10.06C38.89,17.59,38.85,16.59,38.6,15.51z M35.82,10.11
			c-2.39-2.43-5.24-3.62-8.61-3.55c-1.97,0.04-5.08,1.06-5.66,1.82c0.21,0.08,0.49,0.12,0.64,0.27c0.15,0.15,0.17,0.43,0.24,0.63
			c4.54-2.33,8.7-1.76,12.45,1.74C35.18,10.74,35.48,10.44,35.82,10.11z"/>
		<path class="st0" d="M8.99,34.42c-0.01,0.4-0.34,0.72-0.75,0.71c-0.42,0-0.76-0.35-0.74-0.76c0.02-0.4,0.36-0.71,0.77-0.7
			C8.68,33.69,9,34.02,8.99,34.42z"/>
	</g>
</g>
</svg>
