<?xml version="1.0" encoding="utf-8"?>
<!-- Generator: Adobe Illustrator 26.4.1, SVG Export Plug-In . SVG Version: 6.00 Build 0)  -->
<svg version="1.1" id="Layer_1" xmlns="http://www.w3.org/2000/svg" xmlns:xlink="http://www.w3.org/1999/xlink" x="0px" y="0px"
	 viewBox="0 0 50 50" style="enable-background:new 0 0 50 50;" xml:space="preserve">
<style type="text/css">
	.st0{display:none;}
	.st1{display:inline;}
	.st2{fill:#0071BC;}
</style>
<g id="aNjO18.tif" class="st0">
	<g class="st1">
		<path class="st2" d="M5.2,33.53c0.2-0.6,0.63-0.98,1.18-1.26c0.45-0.22,0.88-0.49,1.31-0.73c0.86-0.48,1.75-0.24,2.25,0.61
			c0.12,0.2,0.24,0.41,0.37,0.65c0.7-0.4,1.38-0.8,2.07-1.19c1.15-0.65,2.28-1.33,3.45-1.94c1.27-0.66,2.58-0.75,3.94-0.23
			c1.94,0.73,3.89,1.43,5.93,1.83c1.13,0.23,1.93,1.37,1.85,2.5c-0.02,0.31-0.12,0.61-0.21,1c0.3-0.14,0.57-0.25,0.82-0.4
			c2.05-1.19,4.09-2.38,6.13-3.57c0.86-0.5,1.76-0.93,2.76-1.05c1-0.12,1.91,0.07,2.55,0.93c0.62,0.84,0.7,1.78,0.25,2.7
			c-0.2,0.41-0.54,0.81-0.92,1.05c-3.79,2.37-7.6,4.7-11.4,7.04c-1.26,0.77-2.59,0.9-4,0.52c-2.43-0.66-4.87-1.29-7.3-1.97
			c-0.46-0.13-0.84-0.14-1.21,0.17c-0.11,0.09-0.25,0.15-0.4,0.24c0.16,0.28,0.32,0.55,0.47,0.83c0.45,0.84,0.22,1.71-0.59,2.19
			c-0.58,0.35-1.16,0.68-1.76,0.99c-0.8,0.42-1.68,0.18-2.13-0.6c-1.75-3.06-3.48-6.14-5.21-9.21c-0.08-0.15-0.14-0.31-0.21-0.47
			C5.2,33.95,5.2,33.74,5.2,33.53z M14,39.3c0.31-0.18,0.58-0.3,0.81-0.47c0.41-0.3,0.81-0.31,1.3-0.17
			c2.53,0.7,5.08,1.35,7.61,2.06c1.24,0.34,2.36,0.22,3.45-0.49c0.91-0.59,1.84-1.14,2.77-1.71c2.77-1.7,5.54-3.41,8.3-5.11
			c0.53-0.32,0.74-0.9,0.58-1.51C38.66,31.32,38.23,31,37.57,31c-0.2,0-0.41-0.01-0.59,0.06c-0.71,0.28-1.44,0.53-2.1,0.9
			c-2.03,1.14-4.03,2.32-6.03,3.5c-1.07,0.63-2.22,0.88-3.43,0.62c-1.66-0.37-3.31-0.8-4.96-1.22c-0.39-0.1-0.57-0.45-0.46-0.79
			c0.11-0.35,0.43-0.53,0.82-0.43c0.68,0.18,1.34,0.39,2.02,0.56c0.75,0.19,1.51,0.4,2.28,0.5c0.63,0.08,1.09-0.34,1.18-0.93
			c0.08-0.55-0.32-1.12-0.9-1.28c-0.18-0.05-0.37-0.07-0.54-0.12c-1.91-0.6-3.83-1.2-5.73-1.82c-0.72-0.24-1.43-0.27-2.13,0.01
			c-0.42,0.16-0.83,0.35-1.22,0.57c-1.52,0.86-3.02,1.74-4.53,2.62c-0.09,0.05-0.16,0.12-0.26,0.19C11.98,35.73,12.98,37.5,14,39.3z
			 M8.59,32.55c-0.12,0.04-0.17,0.06-0.22,0.08c-0.56,0.32-1.13,0.64-1.69,0.96c-0.24,0.14-0.21,0.32-0.09,0.54
			c1.69,2.99,3.39,5.98,5.08,8.97c0.16,0.28,0.34,0.32,0.62,0.16c0.45-0.27,0.92-0.52,1.38-0.78c0.45-0.25,0.47-0.32,0.21-0.77
			c-0.8-1.41-1.6-2.83-2.4-4.24c-0.86-1.52-1.72-3.04-2.58-4.55C8.81,32.76,8.68,32.66,8.59,32.55z"/>
		<path class="st2" d="M16.88,11.27c-0.43-0.46-0.84-0.92-1.27-1.38c-0.2-0.22-0.32-0.45-0.2-0.75c0.12-0.3,0.37-0.39,0.66-0.41
			c0.87-0.04,1.74-0.07,2.61-0.14c0.24-0.02,0.52-0.12,0.7-0.27c4.89-4.25,12.39-4.01,16.98,0.56c0.11,0.11,0.17,0.27,0.24,0.38
			c1.12-1.1,2.12-2.09,3.13-3.08c0.91-0.89,1.98-1.16,3.17-0.69c1.87,0.73,2.41,3.09,1.03,4.6c-0.8,0.88-1.67,1.7-2.5,2.55
			c-0.51,0.52-1.02,1.04-1.54,1.55c-0.17,0.17-0.22,0.32-0.16,0.56c1.71,6.98-2.57,13.85-9.57,15.36
			c-6.84,1.48-13.67-3.1-14.91-10.01c-0.55-3.02-0.04-5.86,1.46-8.53C16.78,11.47,16.83,11.37,16.88,11.27z M36.22,17.94
			c-0.16,0.15-0.26,0.24-0.36,0.34c-1.3,1.3-2.59,2.61-3.89,3.91c-1.14,1.13-2.87,1.24-3.97,0.18c-1.78-1.71-3.52-3.47-5.25-5.25
			c-0.83-0.85-0.93-2.16-0.38-3.22c0.55-1.05,1.69-1.64,2.87-1.51c0.73,0.08,1.32,0.42,1.83,0.94c0.92,0.93,1.85,1.85,2.72,2.72
			c1.4-1.37,2.77-2.72,4.15-4.07c-0.02-0.03-0.04-0.07-0.07-0.1c-2.82-3.2-8.3-3.62-11.56-0.89c-0.11,0.09-0.19,0.25-0.21,0.39
			c-0.16,1.1-0.31,2.2-0.45,3.3c-0.04,0.33-0.14,0.59-0.48,0.7c-0.33,0.1-0.55-0.07-0.76-0.3c-0.22-0.25-0.45-0.49-0.7-0.75
			c-1.44,3.15-0.75,6.97,1.68,9.48c2.51,2.59,6.29,3.36,9.6,1.95C34.32,24.34,36.2,21.1,36.22,17.94z M29.83,21.9
			c0.02-0.03,0.03-0.07,0.05-0.1c0.53,0.01,0.92-0.25,1.28-0.61c3.89-3.93,7.78-7.85,11.67-11.77c0.1-0.1,0.21-0.21,0.29-0.32
			c0.38-0.55,0.44-1.13,0.11-1.72c-0.32-0.57-0.83-0.84-1.48-0.81c-0.48,0.02-0.84,0.26-1.17,0.59c-3.36,3.39-6.72,6.78-10.08,10.16
			c-0.49,0.5-0.77,0.5-1.27,0c-1.07-1.06-2.12-2.14-3.2-3.19c-0.65-0.64-1.63-0.62-2.25,0c-0.63,0.63-0.65,1.59-0.01,2.24
			c1.65,1.67,3.31,3.34,5,4.98C29.05,21.61,29.48,21.72,29.83,21.9z M38.6,15.51c-0.39,0.39-0.72,0.71-1.02,1.06
			c-0.07,0.08-0.09,0.23-0.1,0.36c-0.04,0.87,0.01,1.75-0.13,2.6c-1.03,6.28-7.89,10-13.69,7.38c-3.71-1.67-5.71-4.63-5.97-8.7
			c-0.12-1.85,0.34-3.59,1.24-5.21c0.29-0.51,0.75-0.57,1.16-0.14c0.13,0.13,0.25,0.26,0.44,0.47c0.16-1.22,0.31-2.35,0.47-3.55
			c-1.2,0.06-2.35,0.12-3.58,0.18c0.2,0.22,0.33,0.35,0.45,0.49c0.6,0.65,0.61,0.72,0.15,1.47c-1.37,2.25-1.92,4.68-1.59,7.29
			c0.86,6.87,7.6,11.33,14.25,9.46c4.53-1.27,7.85-5.36,8.15-10.06C38.89,17.59,38.85,16.59,38.6,15.51z M35.82,10.11
			c-2.39-2.43-5.24-3.62-8.61-3.55c-1.97,0.04-5.08,1.06-5.66,1.82c0.21,0.08,0.49,0.12,0.64,0.27c0.15,0.15,0.17,0.43,0.24,0.63
			c4.54-2.33,8.7-1.76,12.45,1.74C35.18,10.74,35.48,10.44,35.82,10.11z"/>
		<path class="st2" d="M8.99,34.42c-0.01,0.4-0.34,0.72-0.75,0.71c-0.42,0-0.76-0.35-0.74-0.76c0.02-0.4,0.36-0.71,0.77-0.7
			C8.68,33.69,9,34.02,8.99,34.42z"/>
	</g>
</g>
<g id="Dc80Ug.tif" class="st0">
	<g class="st1">
		<path class="st2" d="M22.72,44.89c-3.84-0.92-7.65-1.95-11.52-2.68c-1.36-0.26-2.88,0.15-4.3,0.37c-1.22,0.19-1.59-0.02-1.6-1.25
			c-0.01-2.54,0-5.08,0-7.7c1.58,0.43,2.97-0.16,4.31-0.7c4.32-1.75,8.3-1.26,12.03,1.53c0.63,0.47,1.3,0.97,2.03,1.21
			c0.81,0.27,1.71,0.32,2.57,0.34c1.44,0.04,2.89-0.11,4.32,0c0.6,0.05,1.28,0.43,1.7,0.88c0.46,0.49,0.81,0.43,1.36,0.32
			c2.74-0.53,5.49-1.05,8.25-1.47c1.18-0.18,2.3,0.12,3.02,1.23c0,0.26,0,0.53,0,0.79c-0.69,0.47-1.32,1.09-2.09,1.37
			c-1.85,0.68-3.75,1.21-5.63,1.8c-4.16,1.32-8.32,2.64-12.48,3.96C24.04,44.89,23.38,44.89,22.72,44.89z M31.6,38.77
			c0-1.14-0.7-1.52-1.48-1.57c-1.21-0.07-2.44-0.06-3.64,0.1c-1.23,0.16-2.38,0.12-3.45-0.5c-1.08-0.63-2.12-1.33-3.18-2
			c-2.57-1.63-5.33-2.02-8.24-1.19c-1.49,0.42-2.96,0.91-4.42,1.4c-0.22,0.08-0.54,0.35-0.55,0.53c-0.04,1.91-0.02,3.82-0.02,5.79
			c0.35-0.05,0.57-0.07,0.79-0.11c1.87-0.35,3.72-0.44,5.59,0.04c2.24,0.56,4.52,0.96,6.72,1.63c2.51,0.76,4.84,0.79,7.4-0.12
			c4.9-1.75,9.93-3.12,14.9-4.65c0.49-0.15,0.95-0.36,1.43-0.54c-0.01-0.13-0.02-0.27-0.03-0.4c-0.85-0.04-1.72-0.2-2.55-0.11
			c-3.55,0.38-7,1.23-10.35,2.47c-2.35,0.87-4.71,1.52-7.19,0.52c-0.24-0.1-0.52-0.1-0.78-0.13c-1.03-0.11-2.07-0.22-3.1-0.33
			c0.01-0.12,0.02-0.23,0.03-0.35c1.78,0.17,3.59,0.16,5.33,0.54C27.27,40.3,29.35,39.15,31.6,38.77z"/>
		<path class="st2" d="M44.89,16.57c-1.47-0.58-2.79,0.1-4.1,0.57c-1.88,0.66-3.74,1.24-5.78,1.05c-1.97-0.18-3.82-0.68-5.46-1.83
			c-0.59-0.42-1.2-0.82-1.8-1.23c-1.3-0.88-2.64-1.32-4.28-1c-1.2,0.23-2.49,0.14-3.73,0.03c-0.58-0.05-1.3-0.33-1.66-0.75
			c-0.57-0.67-1.07-0.57-1.8-0.43c-2.77,0.53-5.56,1.01-8.35,1.4c-0.6,0.08-1.33-0.14-1.87-0.45c-1.03-0.57-1.04-1.66-0.07-2.31
			c0.51-0.34,1.11-0.58,1.7-0.77c4.97-1.54,9.94-3.06,14.91-4.58c0.47-0.14,0.96-0.26,1.41-0.46c1.52-0.7,3.06-0.62,4.64-0.23
			c2.91,0.72,5.83,1.38,8.73,2.12c1.98,0.5,3.92,0.34,5.86-0.14c0.68-0.17,1.23-0.13,1.64,0.5C44.89,10.89,44.89,13.73,44.89,16.57z
			 M43.51,9.09c-1.78,0-3.48,0.21-5.1-0.05c-2.63-0.41-5.24-1.01-7.79-1.76C28,6.52,25.59,6.46,22.94,7.41
			c-4.89,1.76-9.92,3.11-14.89,4.65C7.6,12.2,7.17,12.42,6.73,12.6c0.01,0.1,0.01,0.21,0.02,0.31c0.56,0.08,1.13,0.23,1.69,0.22
			c0.82-0.02,1.67-0.05,2.45-0.25c3.85-1,7.68-2.07,11.52-3.08c0.63-0.17,1.31-0.34,1.93-0.25c2.1,0.31,4.18,0.74,6.41,1.15
			c-1.2,0-2.35,0.2-3.39-0.04c-2.79-0.65-5.47-0.38-8.14,0.54c-0.75,0.26-0.89,0.77-0.26,1.25c0.37,0.28,0.88,0.5,1.35,0.52
			c0.98,0.06,2.01,0.15,2.95-0.07c1.86-0.43,3.45,0.03,4.97,1.02c0.66,0.43,1.31,0.89,1.96,1.33c2.34,1.58,4.93,2.08,7.64,1.46
			c1.91-0.44,3.76-1.17,5.67-1.77C43.51,12.93,43.51,10.93,43.51,9.09z"/>
		<path class="st2" d="M18.31,25.04c0.02-3.79,3.01-6.75,6.8-6.74c3.83,0.01,6.81,3.05,6.77,6.88c-0.05,3.78-3.07,6.73-6.86,6.7
			C21.24,31.84,18.29,28.84,18.31,25.04z M19.54,25.05c-0.01,3.06,2.43,5.56,5.47,5.59c3.11,0.03,5.62-2.44,5.63-5.53
			c0.01-3.06-2.44-5.56-5.47-5.59C22.06,19.5,19.55,21.96,19.54,25.05z"/>
	</g>
	<g id="HM5NVO.tif" class="st1">
		<g>
			<path class="st2" d="M22.85,26.32c0-0.02,0-0.03,0-0.05c0.01,0,0.01,0,0.02,0c0.2-0.04,0.41-0.08,0.61-0.12
				c0.06-0.01,0.11-0.02,0.17-0.03c0,0.02,0.01,0.04,0.01,0.05c0.03,0.2,0.08,0.4,0.15,0.59c0.14,0.34,0.38,0.58,0.72,0.71
				c0.08,0.03,0.16,0.05,0.24,0.05c0-0.02,0-0.04,0-0.05c0-0.8,0-1.59,0-2.39c0-0.02,0-0.04,0-0.07c0-0.02-0.01-0.03-0.03-0.03
				c-0.34-0.07-0.65-0.2-0.95-0.36c-0.32-0.17-0.55-0.43-0.68-0.76c-0.15-0.37-0.17-0.75-0.08-1.13c0.13-0.59,0.48-1.01,1.06-1.23
				c0.21-0.08,0.42-0.12,0.65-0.14c0.03,0,0.05-0.01,0.05-0.05c0-0.1,0-0.2,0-0.3c0-0.01,0-0.02,0-0.04c0.16,0,0.31,0,0.47,0
				c0,0.13,0,0.25,0,0.38c0.02,0,0.03,0,0.04,0.01c0.12,0.02,0.25,0.04,0.37,0.07c0.29,0.07,0.54,0.2,0.76,0.4
				c0.27,0.25,0.44,0.56,0.52,0.92c0.02,0.07,0.03,0.14,0.04,0.21c-0.28,0.04-0.55,0.08-0.82,0.12c-0.02-0.09-0.04-0.17-0.06-0.25
				c-0.11-0.39-0.34-0.66-0.74-0.77c-0.04-0.01-0.07-0.02-0.11-0.03c0,0.77,0,1.53,0,2.29c0.1,0.03,0.2,0.05,0.3,0.08
				c0.23,0.06,0.45,0.12,0.66,0.24c0.4,0.21,0.69,0.53,0.83,0.96c0.11,0.33,0.12,0.68,0.06,1.02c-0.13,0.76-0.75,1.44-1.66,1.55
				c-0.06,0.01-0.13,0.01-0.2,0.02c0,0.27,0,0.54,0,0.8c-0.16,0-0.31,0-0.47,0c0-0.01,0-0.03,0-0.04c0-0.24,0-0.48,0-0.72
				c0-0.03-0.01-0.04-0.03-0.04c-0.19-0.02-0.37-0.06-0.56-0.11c-0.25-0.07-0.49-0.18-0.69-0.36c-0.36-0.33-0.55-0.74-0.63-1.21
				C22.87,26.46,22.86,26.39,22.85,26.32z M25.25,27.54c0.01,0,0.02,0,0.02,0c0.43-0.07,0.75-0.3,0.93-0.7
				c0.12-0.26,0.14-0.53,0.09-0.81c-0.03-0.19-0.11-0.35-0.24-0.49c-0.11-0.11-0.24-0.19-0.38-0.25c-0.14-0.06-0.28-0.11-0.42-0.17
				C25.25,25.93,25.25,26.73,25.25,27.54z M24.78,24.24c0-0.73,0-1.46,0-2.19c-0.01,0-0.02,0-0.03,0c-0.06,0.01-0.12,0.02-0.18,0.04
				c-0.32,0.1-0.55,0.29-0.69,0.59c-0.09,0.19-0.11,0.39-0.09,0.6c0.03,0.24,0.12,0.45,0.3,0.61
				C24.29,24.07,24.53,24.16,24.78,24.24z"/>
		</g>
	</g>
</g>
<g id="XTo7NC.tif" class="st0">
	<g class="st1">
		<path class="st2" d="M26.17,5c0.86,0.12,1.73,0.2,2.58,0.36c2.64,0.49,5.08,1.49,7.32,2.99c0.06,0.04,0.13,0.08,0.26,0.15
			c-0.06-0.67-0.12-1.28-0.18-1.94c0.78-0.08,1.53-0.16,2.32-0.24c0.21,2.04,0.41,4.05,0.62,6.09c-2.04,0.21-4.04,0.41-6.09,0.63
			c-0.08-0.78-0.16-1.53-0.24-2.32c0.74-0.08,1.44-0.16,2.18-0.24c-5.13-3.77-13.7-4.66-20.44,0.33c-2.45,1.82-4.33,4.12-5.59,6.9
			c-1.26,2.78-1.75,5.7-1.51,8.75c0.25,3.05,1.24,5.83,2.94,8.41c-0.65,0.44-1.29,0.87-1.93,1.3c-0.86-1.27-1.55-2.59-2.08-3.99
			c-0.69-1.81-1.12-3.68-1.26-5.61c-0.01-0.1-0.04-0.2-0.06-0.3c0-0.83,0-1.67,0-2.5c0.13-0.89,0.22-1.78,0.39-2.66
			c1.49-7.97,8.14-14.47,16.13-15.79C22.26,5.19,23,5.1,23.75,5C24.56,5,25.36,5,26.17,5z"/>
		<path class="st2" d="M23.83,45c-0.73-0.1-1.47-0.18-2.2-0.3c-2.76-0.46-5.3-1.48-7.64-3.01c-0.09-0.06-0.17-0.11-0.32-0.2
			c0.06,0.67,0.12,1.28,0.19,1.95c-0.78,0.08-1.53,0.16-2.32,0.24c-0.21-2.04-0.41-4.04-0.62-6.09c2.03-0.21,4.03-0.41,6.09-0.63
			c0.08,0.77,0.16,1.53,0.24,2.32c-0.73,0.08-1.44,0.16-2.17,0.24c4.99,3.68,13.56,4.73,20.36-0.29c3.79-2.8,6.14-6.53,6.95-11.18
			c0.81-4.64-0.14-8.94-2.72-12.92c0.65-0.44,1.28-0.86,1.93-1.3c1.03,1.51,1.81,3.11,2.38,4.8c0.52,1.56,0.85,3.16,0.97,4.81
			c0.01,0.13,0.04,0.25,0.06,0.38c0,0.81,0,1.61,0,2.42c-0.02,0.1-0.05,0.2-0.07,0.3c-0.14,0.93-0.22,1.86-0.41,2.78
			c-1.6,7.75-8.23,14.1-16.04,15.36c-0.74,0.12-1.49,0.21-2.23,0.31C25.44,45,24.64,45,23.83,45z"/>
		<path class="st2" d="M14.9,27.45c0.98,0,1.96,0,2.96,0c0,0.62,0,1.19,0,1.79c-0.13,0.01-0.25,0.02-0.38,0.02
			c-1.82,0-3.64-0.01-5.46,0.01c-0.33,0-0.39-0.11-0.42-0.42c-0.07-0.72,0.15-1.24,0.72-1.71c0.85-0.7,1.65-1.48,2.42-2.27
			c0.27-0.27,0.49-0.65,0.58-1.02c0.13-0.5-0.14-0.82-0.65-0.93c-0.74-0.15-1.32,0.11-1.8,0.73c-0.55-0.31-1.1-0.61-1.67-0.93
			c0.42-0.7,1-1.14,1.71-1.4c0.96-0.35,1.94-0.38,2.91-0.09c1.75,0.52,2.38,2.32,1.33,3.82c-0.27,0.38-0.6,0.71-0.94,1.04
			c-0.43,0.43-0.89,0.83-1.34,1.25C14.89,27.39,14.89,27.42,14.9,27.45z"/>
		<path class="st2" d="M18.62,27.74c0-0.5-0.01-0.94,0.01-1.38c0.01-0.12,0.09-0.24,0.16-0.34c1.08-1.51,2.16-3.02,3.26-4.53
			c0.1-0.13,0.3-0.24,0.46-0.25c0.66-0.03,1.32-0.01,2.07-0.01c-1.11,1.59-2.16,3.11-3.25,4.67c0.57,0,1.07,0,1.61,0
			c0-0.44,0-0.86,0-1.32c0.72,0,1.4,0,2.13,0c0,0.43,0,0.86,0,1.33c0.42,0,0.79,0,1.19,0c0,0.62,0,1.19,0,1.81
			c-0.38,0-0.75,0-1.17,0c0,0.53,0,1.01,0,1.53c-0.75,0-1.46,0-2.21,0c0-0.5,0-0.99,0-1.51C21.46,27.74,20.07,27.74,18.62,27.74z"/>
		<path class="st2" d="M36.19,23.05c-0.72,0-1.39,0-2.11,0c0,0.41,0,0.79,0,1.2c-0.65,0-1.26,0-1.9,0c0-0.99,0-1.99,0-3
			c2.2,0,4.4,0,6.63,0c-0.02,0.66,0.07,1.29-0.21,1.92c-0.86,1.91-1.67,3.84-2.48,5.77c-0.11,0.25-0.23,0.35-0.51,0.34
			c-0.68-0.02-1.35-0.01-2.11-0.01C34.4,27.17,35.29,25.12,36.19,23.05z"/>
		<path class="st2" d="M32.14,19.6c-0.08,0.24-0.14,0.43-0.2,0.61c-1.15,3.27-2.29,6.54-3.43,9.82c-0.1,0.29-0.23,0.41-0.55,0.39
			c-0.49-0.03-0.98-0.01-1.51-0.01c0.05-0.18,0.08-0.31,0.13-0.44c1.17-3.33,2.34-6.66,3.5-10c0.1-0.28,0.21-0.39,0.52-0.37
			C31.08,19.62,31.58,19.6,32.14,19.6z"/>
	</g>
</g>
<g id="phwuAn.tif" class="st0">
	<g class="st1">
		<path class="st2" d="M41.97,20.7c-0.09,2.49-0.07,5-0.28,7.48c-0.47,5.46-3.15,9.59-7.79,12.49c-2.65,1.65-5.5,2.87-8.42,3.94
			c-0.28,0.1-0.67,0.11-0.95,0.01c-3.34-1.24-6.61-2.63-9.54-4.72c-4.68-3.32-6.73-7.98-6.83-13.58c-0.08-4.13-0.04-8.25-0.06-12.38
			c0-0.79,0.37-1.28,1.09-1.6c5.04-2.28,10.07-4.58,15.13-6.84c0.38-0.17,0.97-0.18,1.36-0.01c5.07,2.26,10.12,4.58,15.19,6.87
			c0.73,0.33,1.05,0.85,1.04,1.63c-0.01,2.24,0,4.47,0,6.71C41.92,20.7,41.95,20.7,41.97,20.7z M39.18,21.06c-0.03,0-0.07,0-0.1,0
			c0-1.98-0.01-3.95,0.01-5.93c0-0.34-0.08-0.54-0.42-0.7c-4.43-2-8.86-4.01-13.29-6.01c-0.21-0.09-0.52-0.1-0.73-0.01
			c-4.45,2-8.9,4.02-13.34,6.06c-0.18,0.08-0.38,0.37-0.37,0.56c0.02,4.28-0.04,8.56,0.15,12.83c0.17,3.78,1.8,6.93,4.85,9.27
			c2.67,2.05,5.71,3.37,8.81,4.57c0.18,0.07,0.43,0.03,0.62-0.04c2.56-0.98,5.05-2.09,7.36-3.59c3.45-2.25,5.66-5.32,6.09-9.46
			C39.07,26.1,39.06,23.57,39.18,21.06z"/>
		<path class="st2" d="M19.39,20.7c-0.21-2.18,0.23-4.17,2.01-5.66c1.13-0.95,2.45-1.36,3.93-1.28c1.75,0.11,3.15,0.89,4.2,2.28
			c1.05,1.38,1.19,2.99,1.06,4.66c0.17,0.05,0.29,0.08,0.41,0.11c1.44,0.26,2.42,1.31,2.43,2.79c0.03,2.82,0.04,5.64,0,8.47
			c-0.02,1.59-1.18,2.76-2.79,2.77c-3.78,0.04-7.55,0.04-11.33,0c-1.63-0.02-2.76-1.22-2.78-2.85c-0.03-2.78-0.03-5.56,0-8.34
			C16.56,22.07,17.42,21.2,19.39,20.7z M19.39,32c3.77,0,7.47,0,11.17,0c0-2.82,0-5.6,0-8.37c-3.76,0-7.45,0-11.17,0
			C19.39,26.44,19.39,29.19,19.39,32z M24.94,20.78C24.94,20.78,24.94,20.79,24.94,20.78c0.43,0.01,0.87,0.01,1.3,0.01
			c1.76,0,1.82-0.07,1.53-1.86c-0.22-1.35-1.34-2.34-2.69-2.37c-1.39-0.04-2.59,0.9-2.83,2.27c-0.09,0.49-0.05,0.99-0.08,1.49
			c-0.03,0.37,0.15,0.49,0.5,0.48C23.43,20.77,24.18,20.78,24.94,20.78z"/>
		<path class="st2" d="M25.01,26.42c0.77,0.01,1.41,0.66,1.38,1.43c-0.03,0.78-0.66,1.37-1.45,1.35c-0.75-0.02-1.35-0.64-1.35-1.39
			C23.59,27.04,24.24,26.41,25.01,26.42z"/>
	</g>
</g>
<g id="_x33_o3DxH.tif" class="st0">
	<g class="st1">
		<path class="st2" d="M24.97,25.53c0.91-1.12,1.78-2.18,2.64-3.24c0.16-0.2,0.31-0.41,0.48-0.59c0.27-0.29,0.59-0.24,0.64,0.13
			c0.12,1.08,0.18,2.17,0.23,3.26c0,0.09-0.2,0.23-0.33,0.28c-1.76,0.61-2.36,1.44-2.36,3.28c0,0.78-0.01,1.57,0.01,2.35
			c0.01,0.57,0.3,0.97,0.81,1c0.25,0.02,0.6-0.1,0.74-0.29c0.12-0.16,0.03-0.5-0.01-0.75c-0.04-0.24-0.18-0.46-0.2-0.7
			c-0.03-0.55-0.01-1.09-0.01-1.64c0-1.45,1.04-2.29,2.49-2c1.11,0.22,1.55,0.76,1.55,1.89c0,0.62,0.01,1.24,0,1.86
			c0,0.15-0.03,0.33-0.11,0.46c-0.32,0.54-0.29,0.89,0.11,1.11c0.42,0.23,1.04,0.01,1.24-0.46c0.08-0.19,0.1-0.42,0.1-0.64
			c0.01-0.8,0-1.61,0-2.41c0-1.57-0.7-2.56-2.19-3c-0.42-0.12-0.49-0.31-0.49-0.68c0.02-0.87,0.01-1.75,0.01-2.61
			c1.93,0.38,3.98,2.62,4.27,4.78c0.09,0.68,0.1,1.38,0.1,2.07c0.01,1.93,0,3.86,0,5.84c-6.49,0-12.94,0-19.38,0
			c-0.03-0.04-0.06-0.08-0.06-0.11c0.02-2.57-0.04-5.15,0.1-7.71c0.11-2.08,2.15-4.32,4-4.74c0,1.62,0.01,3.26-0.01,4.9
			c0,0.21-0.14,0.47-0.31,0.6c-0.63,0.52-0.89,1.21-0.65,1.94c0.23,0.71,0.92,1.22,1.65,1.21c0.71-0.01,1.37-0.49,1.62-1.19
			c0.25-0.71-0.01-1.46-0.68-1.98c-0.11-0.09-0.26-0.24-0.26-0.36c0.02-1.71,0.05-3.43,0.12-5.14c0.01-0.22,0.14-0.51,0.31-0.63
			c0.26-0.19,0.55-0.15,0.8,0.16C22.91,23.03,23.91,24.24,24.97,25.53z"/>
		<path class="st2" d="M8.08,34.85c-1.02,0-1.97,0-2.92,0c-0.03-0.09-0.07-0.15-0.07-0.22c0-2.17-0.04-4.34,0.03-6.51
			c0.07-2.03,1.21-3.44,2.96-4.34c2.4-1.24,4.96-1.3,7.64-1.02c-0.1,0.15-0.15,0.27-0.22,0.35c-1.24,1.43-1.78,3.12-1.79,4.99
			c-0.01,2.03,0,4.05,0,6.08c0,0.21-0.02,0.43-0.03,0.67c-1.39,0-2.73,0-4.14,0c0-1.69,0-3.35,0-5.06c-0.44,0-0.81,0-1.25,0
			C8.21,31.47,8.15,33.14,8.08,34.85z"/>
		<path class="st2" d="M44.83,34.85c-1.02,0-1.96,0-2.97,0c-0.04-0.85-0.09-1.68-0.11-2.51c-0.02-0.84,0-1.67,0-2.46
			c-0.18-0.08-0.23-0.11-0.28-0.12c-1.04-0.08-1.04-0.08-1.04,0.97c0,1.17,0,2.34,0,3.5c0,0.2-0.02,0.39-0.03,0.61
			c-1.39,0-2.73,0-4.13,0c-0.01-0.24-0.03-0.47-0.04-0.7c-0.01-2.23,0.01-4.45-0.05-6.68c-0.04-1.62-0.66-3.05-1.7-4.3
			c-0.09-0.11-0.16-0.23-0.29-0.41c2.74-0.31,5.35-0.24,7.78,1.07c1.91,1.03,2.9,2.64,2.89,4.85c-0.01,1.86,0,3.72,0,5.58
			C44.86,34.44,44.84,34.62,44.83,34.85z"/>
		<path class="st2" d="M19.59,14.84c0-2.97,2.39-5.37,5.34-5.37c3.02,0,5.41,2.37,5.41,5.35c0.01,3.03-2.37,5.4-5.42,5.4
			C21.97,20.22,19.59,17.81,19.59,14.84z"/>
		<path class="st2" d="M31.83,17.09c0-2.59,2.07-4.65,4.66-4.65c2.57,0.01,4.63,2.1,4.61,4.69c-0.01,2.55-2.11,4.61-4.66,4.59
			C33.89,21.72,31.83,19.65,31.83,17.09z"/>
		<path class="st2" d="M18.09,17.15c-0.04,2.59-2.14,4.63-4.73,4.58c-2.52-0.04-4.56-2.15-4.54-4.67c0.02-2.61,2.13-4.65,4.77-4.61
			C16.1,12.49,18.13,14.61,18.09,17.15z"/>
	</g>
</g>
<g id="_x38_yqckm.tif">
	<g>
		<path class="st2" d="M30.53,5.1c0.29,0.07,0.58,0.12,0.87,0.2c2.56,0.67,4.4,2.83,4.65,5.45c0.25,2.57-1.19,5.06-3.58,6.17
			c-0.23,0.11-0.33,0.22-0.32,0.49c0.02,1.05,0.01,2.11,0.01,3.16c0,0.1,0.01,0.2,0.02,0.25c0.43-0.21,0.83-0.49,1.28-0.62
			c0.82-0.24,1.58-0.03,2.21,0.52c0.54,0.47,1.03,0.99,1.53,1.5c0.31,0.32,0.29,0.79,0,1.09c-0.3,0.31-0.78,0.32-1.12,0
			c-0.45-0.43-0.88-0.89-1.33-1.32c-0.47-0.45-1.05-0.42-1.44,0.05C33,22.43,33,22.9,33.36,23.29c0.31,0.35,0.66,0.67,0.98,1
			c0.4,0.41,0.42,0.87,0.06,1.2c-0.34,0.32-0.78,0.29-1.17-0.09c-0.66-0.65-1.3-1.31-1.96-1.96c-0.46-0.45-0.94-0.48-1.35-0.12
			c-0.45,0.39-0.46,0.97,0,1.44c0.63,0.66,1.29,1.29,1.92,1.94c0.14,0.14,0.27,0.33,0.33,0.51c0.09,0.35-0.03,0.65-0.35,0.83
			c-0.33,0.19-0.66,0.16-0.94-0.1c-0.4-0.37-0.78-0.77-1.16-1.16c-0.65-0.65-1.3-1.31-1.96-1.96c-0.48-0.47-1.04-0.45-1.44,0
			c-0.35,0.4-0.33,0.89,0.09,1.33c0.59,0.62,1.2,1.22,1.81,1.83c0.39,0.39,0.77,0.77,1.16,1.16c0.45,0.46,0.49,0.91,0.12,1.26
			c-0.35,0.34-0.8,0.29-1.23-0.15c-2.53-2.53-5.05-5.06-7.58-7.59c-0.13-0.13-0.26-0.26-0.4-0.37c-0.41-0.3-0.89-0.25-1.23,0.1
			c-0.34,0.35-0.38,0.8-0.08,1.21c0.11,0.15,0.24,0.28,0.36,0.41c2.94,2.94,5.89,5.88,8.83,8.83c0.23,0.23,0.46,0.47,0.63,0.74
			c0.44,0.67,0.16,1.38-0.61,1.58c-0.27,0.07-0.57,0.09-0.85,0.09c-1.06-0.02-2.13-0.03-3.19-0.1c-1.33-0.08-1.52,1.12-1.09,1.89
			c0.29,0.52,0.76,0.77,1.33,0.84c2.99,0.37,5.98,0.75,8.97,1.11c0.81,0.1,1.63,0.16,2.44,0.15c0.68,0,1.26-0.31,1.75-0.81
			c1.28-1.31,2.55-2.64,3.89-3.89c1.82-1.71,1.46-4.08,0.13-5.6c-0.16-0.19-0.35-0.35-0.51-0.54c-0.32-0.35-0.33-0.81-0.03-1.12
			c0.31-0.32,0.78-0.32,1.15,0.02c1.06,1,1.79,2.18,2.02,3.65c0.01,0.06,0.04,0.12,0.07,0.18c0,0.44,0,0.89,0,1.33
			c-0.02,0.03-0.05,0.06-0.06,0.1c-0.17,1.21-0.74,2.19-1.61,3.04c-1.28,1.26-2.57,2.5-3.79,3.81c-1.15,1.23-2.55,1.56-4.13,1.43
			c-0.82-0.07-1.64-0.19-2.51-0.29c0,0.18,0,0.32,0,0.46c-0.07,1.6-0.75,2.85-2.16,3.64c-0.45,0.25-0.99,0.36-1.48,0.54
			c-2.7,0-5.41,0-8.11,0c-0.04-0.03-0.07-0.07-0.11-0.09c-0.32-0.22-0.48-0.5-0.38-0.9c0.1-0.37,0.38-0.57,0.82-0.57
			c2.35,0,4.7,0,7.06,0c1.85,0,3.03-1.39,2.76-3.26c-0.11-0.02-0.22-0.06-0.33-0.07c-1.97-0.25-3.94-0.49-5.91-0.73
			c-0.96-0.12-1.78-0.48-2.36-1.27c-0.16-0.22-0.32-0.29-0.57-0.29c-4.29,0.01-8.58,0-12.86,0.01c-0.13,0-0.25,0.01-0.41,0.02
			c0,0.93,0,1.84,0,2.75c0,1.76,1.08,2.84,2.85,2.84c0.9,0,1.79,0,2.69,0c0.41,0,0.69,0.21,0.79,0.57c0.1,0.37-0.03,0.66-0.34,0.88
			c-0.05,0.04-0.09,0.08-0.14,0.12c-1.25,0-2.49,0-3.74,0c-0.02-0.01-0.04-0.03-0.07-0.04c-2.47-0.6-3.6-2.04-3.6-4.59
			c0-8.13,0-16.27,0-24.4c0-2.25-0.01-4.5,0-6.75c0.01-1.44,0.62-2.58,1.77-3.43c0.59-0.44,1.28-0.61,1.97-0.78
			C17.02,5.1,23.77,5.1,30.53,5.1z M26.65,33.61c-0.05-0.05-0.11-0.12-0.17-0.18c-2.78-2.78-5.55-5.56-8.33-8.34
			c-0.12-0.12-0.24-0.24-0.35-0.37c-1.09-1.33-0.67-3.2,0.88-3.94c0.99-0.47,2.04-0.24,2.95,0.65c0.92,0.9,1.82,1.82,2.73,2.73
			c0.1,0.1,0.2,0.19,0.31,0.29c0.83-1.39,1.97-1.84,3.47-1.28c0.48-1.04,1.28-1.6,2.39-1.67c0-1.34,0-2.66,0-3.98
			c-2.89,0.1-5.11-0.99-6.33-3.63c-1.22-2.65-0.59-5.06,1.42-7.2c-0.19,0-0.31,0-0.42,0c-4.78,0-9.56,0-14.34,0
			c-1.71,0-2.79,1.1-2.79,2.82c0,8.8,0,17.6,0,26.41c0,0.14,0,0.27,0,0.41c4.42,0,8.79,0,13.12,0c0.1-0.41,0.15-0.82,0.31-1.18
			c0.44-1.01,1.26-1.5,2.33-1.53C24.77,33.58,25.7,33.61,26.65,33.61z M25.2,11.29c-0.01,2.54,2.07,4.65,4.62,4.66
			c2.55,0.01,4.67-2.07,4.68-4.6c0.01-2.56-2.08-4.67-4.65-4.68C27.3,6.66,25.21,8.74,25.2,11.29z"/>
		<path class="st2" d="M16.89,45.1c-0.07-0.05-0.14-0.11-0.21-0.16c-0.38-0.31-0.42-0.82-0.1-1.16c0.31-0.33,0.83-0.33,1.14,0
			c0.32,0.34,0.28,0.86-0.09,1.16c-0.07,0.05-0.14,0.11-0.2,0.16C17.25,45.1,17.07,45.1,16.89,45.1z"/>
		<path class="st2" d="M39.1,26.04c-0.44-0.01-0.78-0.37-0.77-0.81c0.01-0.44,0.37-0.78,0.81-0.76c0.43,0.02,0.77,0.39,0.75,0.83
			C39.87,25.73,39.53,26.05,39.1,26.04z"/>
		<path class="st2" d="M19.32,41.51c-0.61,0-1.22,0-1.83,0c-0.53,0-0.88-0.32-0.88-0.78c0-0.46,0.35-0.79,0.87-0.79
			c1.23-0.01,2.46-0.01,3.69,0c0.54,0,0.87,0.3,0.87,0.78c0,0.49-0.33,0.79-0.9,0.79C20.54,41.51,19.93,41.51,19.32,41.51z"/>
		<path class="st2" d="M19.51,16.54c0,0.36,0.01,0.73,0,1.09c-0.02,0.54-0.34,0.86-0.81,0.85c-0.45-0.01-0.75-0.33-0.76-0.86
			c-0.01-0.74-0.01-1.48,0-2.22c0.01-0.51,0.34-0.84,0.78-0.84c0.44,0,0.76,0.34,0.78,0.85C19.52,15.78,19.51,16.16,19.51,16.54z"/>
		<path class="st2" d="M16.46,25.25c-0.06,0.11-0.14,0.32-0.28,0.47c-0.51,0.54-1.03,1.06-1.56,1.57c-0.37,0.36-0.81,0.37-1.14,0.05
			c-0.34-0.33-0.33-0.79,0.05-1.17c0.53-0.54,1.06-1.07,1.6-1.6c0.26-0.25,0.57-0.31,0.9-0.16C16.31,24.56,16.45,24.82,16.46,25.25z
			"/>
		<path class="st2" d="M21.69,19.89c-0.21-0.18-0.47-0.31-0.61-0.53c-0.18-0.26-0.14-0.59,0.09-0.83c0.57-0.6,1.16-1.19,1.76-1.76
			c0.31-0.29,0.77-0.25,1.05,0.04c0.29,0.3,0.33,0.74,0.03,1.05c-0.56,0.6-1.14,1.17-1.73,1.73C22.15,19.72,21.94,19.77,21.69,19.89
			z"/>
		<path class="st2" d="M13.18,22.86c-0.39,0-0.78,0.01-1.17,0c-0.46-0.02-0.77-0.33-0.78-0.75c-0.01-0.44,0.3-0.79,0.78-0.81
			c0.79-0.02,1.58-0.02,2.37,0c0.45,0.01,0.76,0.36,0.77,0.78c0,0.43-0.32,0.76-0.8,0.78C13.96,22.87,13.57,22.86,13.18,22.86z"/>
		<path class="st2" d="M15.69,19.83c-0.27-0.14-0.48-0.19-0.62-0.32c-0.57-0.55-1.13-1.11-1.68-1.68c-0.32-0.34-0.3-0.77,0.01-1.08
			c0.31-0.32,0.77-0.33,1.11,0c0.56,0.54,1.11,1.09,1.65,1.65c0.24,0.24,0.33,0.57,0.16,0.86C16.17,19.48,15.91,19.63,15.69,19.83z"
			/>
		<path class="st2" d="M29.11,11.51c0.78-0.66,1.55-1.32,2.33-1.96c0.16-0.13,0.34-0.26,0.53-0.3c0.37-0.08,0.66,0.08,0.83,0.43
			c0.16,0.33,0.09,0.68-0.22,0.95c-0.69,0.6-1.38,1.18-2.08,1.77c-0.31,0.26-0.61,0.53-0.92,0.78c-0.41,0.33-0.81,0.3-1.17-0.09
			c-0.46-0.49-0.91-0.99-1.36-1.5c-0.33-0.38-0.31-0.84,0.03-1.15c0.32-0.29,0.78-0.26,1.11,0.08
			C28.5,10.83,28.79,11.16,29.11,11.51z"/>
	</g>
</g>
</svg>
